<svg width="18" height="17" viewBox="0 0 18 17" fill="none" xmlns="http://www.w3.org/2000/svg">
<path d="M15.6667 4.00002H12.3333V2.33335C12.3333 1.89133 12.1577 1.4674 11.8452 1.15484C11.5326 0.842282 11.1087 0.666687 10.6667 0.666687H7.33334C6.40834 0.666687 5.66667 1.40835 5.66667 2.33335V4.00002H2.33334C1.40834 4.00002 0.666672 4.74169 0.666672 5.66669V14.8334C0.666672 15.2754 0.842266 15.6993 1.15483 16.0119C1.46739 16.3244 1.89131 16.5 2.33334 16.5H15.6667C16.1087 16.5 16.5326 16.3244 16.8452 16.0119C17.1577 15.6993 17.3333 15.2754 17.3333 14.8334V5.66669C17.3333 5.22466 17.1577 4.80074 16.8452 4.48818C16.5326 4.17561 16.1087 4.00002 15.6667 4.00002ZM7.33334 2.33335H10.6667V4.00002H7.33334V2.33335ZM9 6.50002C9.55254 6.50002 10.0824 6.71951 10.4731 7.11021C10.8638 7.50092 11.0833 8.03082 11.0833 8.58335C11.0833 9.13589 10.8638 9.66579 10.4731 10.0565C10.0824 10.4472 9.55254 10.6667 9 10.6667C8.44747 10.6667 7.91757 10.4472 7.52687 10.0565C7.13617 9.66579 6.91667 9.13589 6.91667 8.58335C6.91667 8.03082 7.13617 7.50092 7.52687 7.11021C7.91757 6.71951 8.44747 6.50002 9 6.50002ZM13.1667 14.8334H4.83334V13.7917C4.83334 12.6417 6.70001 11.7084 9 11.7084C11.3 11.7084 13.1667 12.6417 13.1667 13.7917V14.8334Z" fill="#1A1A1A"/>
</svg>
