<svg width="16" height="18" viewBox="0 0 16 18" fill="none" xmlns="http://www.w3.org/2000/svg">
<path d="M6.83329 0.666687L12.915 2.56669C13.0846 2.61964 13.2328 2.72542 13.3381 2.86859C13.4433 3.01177 13.5 3.18483 13.5 3.36252V4.83335H15.1666C15.3876 4.83335 15.5996 4.92115 15.7559 5.07743C15.9122 5.23371 16 5.44567 16 5.66669V7.33335H5.16663V5.66669C5.16663 5.44567 5.25442 5.23371 5.4107 5.07743C5.56698 4.92115 5.77895 4.83335 5.99996 4.83335H11.8333V3.97502L6.83329 2.41169L1.83329 3.97502V10.145C1.83317 10.6552 1.95017 11.1586 2.17526 11.6165C2.40036 12.0743 2.72755 12.4744 3.13163 12.7859L3.28913 12.8992L6.83329 15.3167L9.98496 13.1667H5.99996C5.77895 13.1667 5.56698 13.0789 5.4107 12.9226C5.25442 12.7663 5.16663 12.5544 5.16663 12.3334V9.00002H16V12.3334C16 12.5544 15.9122 12.7663 15.7559 12.9226C15.5996 13.0789 15.3876 13.1667 15.1666 13.1667L12.4833 13.1675C12.1608 13.5925 11.7691 13.9675 11.3166 14.2759L6.83329 17.3334L2.34996 14.2767C1.67706 13.8179 1.12642 13.2017 0.745909 12.4816C0.365399 11.7616 0.166542 10.9594 0.166626 10.145V3.36252C0.166726 3.18497 0.223532 3.0121 0.328761 2.86909C0.433991 2.72609 0.582144 2.62043 0.751626 2.56752L6.83329 0.666687Z" fill="#1A1A1A"/>
</svg>
