<svg width="17" height="18" viewBox="0 0 17 18" fill="none" xmlns="http://www.w3.org/2000/svg">
<path d="M8.33333 11.5L9.625 8.62502L12.5 7.33335L9.625 6.04169L8.33333 3.16669L7.04167 6.04169L4.16667 7.33335L7.04167 8.62502L8.33333 11.5ZM0 17.3334V2.33335C0 1.87502 0.163333 1.48252 0.49 1.15585C0.816111 0.829742 1.20833 0.666687 1.66667 0.666687H15C15.4583 0.666687 15.8508 0.829742 16.1775 1.15585C16.5036 1.48252 16.6667 1.87502 16.6667 2.33335V12.3334C16.6667 12.7917 16.5036 13.1842 16.1775 13.5109C15.8508 13.837 15.4583 14 15 14H3.33333L0 17.3334Z" fill="#1A1A1A"/>
</svg>
